# xmcd CD database file
#
# Track frame offsets:
#	187
#	30282
#	66437
#	89522
#	114922
#	142810
#
# Disc length: 2485 seconds
#
# Revision: 1
# Processed by: cddbd v1.5.1PL0 Copyright (c) Steve Scherf et al.
# Submitted via: CDex 1.51
#
DISCID=4509b306
DTITLE=Sonny Rollins - Easy Living
DYEAR=1977
DGENRE=Jazz
TTITLE0=Isn't She Lovely
TTITLE1=Down The Line
TTITLE2=My One And Onely Love
TTITLE3=Arroz Con Pollo
TTITLE4=Easy Living
TTITLE5=Here What I'm Saying
EXTD=YEAR: 1977
EXTT0=
EXTT1=
EXTT2=
EXTT3=
EXTT4=
EXTT5=
PLAYORDER=
